<svg xmlns="http://www.w3.org/2000/svg" width="258" height="244" style="shape-rendering:geometricPrecision;text-rendering:geometricPrecision;image-rendering:optimizeQuality;fill-rule:evenodd;clip-rule:evenodd"><path style="opacity:1" fill="#0a090d" d="M1.5 154.5a41.743 41.743 0 0 1-1-9c1.78-4.947 5.113-8.447 10-10.5a60.84 60.84 0 0 1 14.5-4.5c1.467-7.932 4.8-14.932 10-21 .018-11.446 2.185-22.446 6.5-33-7.726-3.914-12.226-10.247-13.5-19-1.49-8.505-.157-16.505 4-24 4.968-5.615 11.135-7.448 18.5-5.5 5.687 2.18 11.354 4.346 17 6.5a95.854 95.854 0 0 1 26-7 10.1 10.1 0 0 1 1.5-6 188.353 188.353 0 0 1 14-12c1.411-2.15 2.245-4.484 2.5-7a4.932 4.932 0 0 1 3 .5 37.81 37.81 0 0 1 6.5 7.5c11.035-8.674 23.535-11.84 37.5-9.5 1.078.674 1.745 1.674 2 3a25.89 25.89 0 0 1-3 8.5c9.594.92 18.594 3.753 27 8.5a40.48 40.48 0 0 0 13-.5c1.041 8.454-2.126 14.787-9.5 19-.688.832-.521 1.498.5 2a45.817 45.817 0 0 0 7 3c11.236-6.277 22.903-7.443 35-3.5 13.841 14.63 13.174 28.63-2 42-4.03 2.677-8.03 5.344-12 8a94.923 94.923 0 0 1 7.5 17.5 60.761 60.761 0 0 0 11.5 5.5 13.92 13.92 0 0 1 3 4c-2.211 5.582-5.544 10.416-10 14.5 1.915 1.571 2.915 3.571 3 6 24.969 4.941 31.302 18.608 19 41 5.971 6.526 6.471 13.526 1.5 21-11.01 12.65-24.51 21.817-40.5 27.5-49.511 17.199-99.511 18.866-150 5-14.735-5.865-28.402-13.532-41-23-4.915-4.244-9.081-9.077-12.5-14.5-2.454-6.908-1.621-13.408 2.5-19.5-4.655-6.462-7.655-13.628-9-21.5Z"/><path style="opacity:1" fill="#fdc45d" d="M189.5 26.5c1.879-.107 2.212.393 1 1.5a31.063 31.063 0 0 1-8 4c-6.325.5-12.658.666-19 .5-9.484-1.727-18.817-1.227-28 1.5 12.283-.4 24.283 1.1 36 4.5 5.72 3.54 11.053 7.706 16 12.5 2.712.826 5.045.326 7-1.5a208.566 208.566 0 0 1 18-6.5c4-.667 8-.667 12 0 1.566.608 2.9 1.441 4 2.5a24.637 24.637 0 0 0-7 3c-6.978 3.498-13.311 7.998-19 13.5-2.93 1.66-5.93 1.992-9 1a95.447 95.447 0 0 0 7.5 5.5c.667 1 .667 2 0 3a10.526 10.526 0 0 0-2.5 3c-1.292 2.295-.626 4.128 2 5.5 3.188 1.316 6.522 1.816 10 1.5 8.476-.568 15.143-4.234 20-11 1.425-1.531 2.091-1.198 2 1-4.438 7.894-11.105 12.894-20 15-5.495.485-10.662-.515-15.5-3 2.898 8.041 8.731 12.708 17.5 14 2.162 3.64 3.662 7.64 4.5 12l4.5 4.5c3.698 1.11 7.032 2.777 10 5-1.429 3.594-3.762 6.427-7 8.5-5.018 1.34-10.018 2.674-15 4-4.344-9.342-11.344-16.008-21-20-.889-13.169-5.056-25.169-12.5-36-17.279-17.647-34.279-17.313-51 1-8.595 12.284-13.095 25.951-13.5 41a29.291 29.291 0 0 0-6.5 2c-1.833-.019-3.333-.685-4.5-2 2.159-14.057-.008-27.39-6.5-40-15.162-18.376-31.662-19.709-49.5-4l4-13c1.692-1.705 3.025-3.705 4-6 .667 0 1-.333 1-1a102.01 102.01 0 0 1 12-12c5.237-4.283 11.237-6.95 18-8 1.7-.16 3.366.007 5 .5 2.69 5.505 7.023 8.171 13 8-2.621-2.114-4.62-4.614-6-7.5-2.158-6.053-.492-10.886 5-14.5 5.529-2.695 9.529-6.862 12-12.5 1.299.59 2.132 1.59 2.5 3 .497 2.31.663 4.643.5 7-2.004 2.338-3.171 5.005-3.5 8a31.473 31.473 0 0 0 4.5-5c5.206-8.618 12.873-13.784 23-15.5 5-.667 10-.667 15 0a32.096 32.096 0 0 1-6.5 12.5c-.667 1-.667 2 0 3 4.143-2.665 8.643-3.498 13.5-2.5a79.199 79.199 0 0 1 19 8c2.31.497 4.643.663 7 .5Z"/><path style="opacity:1" fill="#c48041" d="M117.5 17.5c-.237 1.291.096 2.291 1 3a31.473 31.473 0 0 1-4.5 5c.329-2.995 1.496-5.662 3.5-8Z"/><path style="opacity:1" fill="#ca8342" d="M189.5 26.5c1.068-.934 2.401-1.268 4-1-1.565 5.9-5.232 9.9-11 12a133.511 133.511 0 0 0-19-5c6.342.166 12.675 0 19-.5a31.063 31.063 0 0 0 8-4c1.212-1.107.879-1.607-1-1.5Z"/><path style="opacity:1" fill="#c98442" d="M85.5 33.5c4.213-1.77 8.047-1.104 11.5 2 .399-.228.565-.562.5-1 1.38 2.886 3.379 5.386 6 7.5-5.977.171-10.31-2.495-13-8-1.634-.493-3.3-.66-5-.5Z"/><path style="opacity:1" fill="#b3622d" d="M163.5 32.5a133.511 133.511 0 0 1 19 5c-1.1 1.105-1.767 2.438-2 4a71.194 71.194 0 0 0-9-3c-11.717-3.4-23.717-4.9-36-4.5 9.183-2.727 18.516-3.227 28-1.5Z"/><path style="opacity:1" fill="#c67b3e" d="M52.5 34.5a155.076 155.076 0 0 1 15 7 102.01 102.01 0 0 0-12 12c.01-3.964-.99-7.631-3-11 1.157-2.526 1.157-5.193 0-8Z"/><path style="opacity:1" fill="#fcc4c4" d="M48.5 41.5a27.36 27.36 0 0 1 .5 11c-2.31 1.637-3.81 3.804-4.5 6.5a23.407 23.407 0 0 1-6 2.5c-3.877-7.122-3.877-14.122 0-21 1.294-.79 2.46-1.79 3.5-3 2.56.734 4.727 2.068 6.5 4Z"/><path style="opacity:1" fill="#a44853" d="M52.5 42.5c2.01 3.369 3.01 7.036 3 11 0 .667-.333 1-1 1-.886-1.276-1.886-1.276-3 0a9.106 9.106 0 0 0-1 5c-1.877-1.16-2.377-2.826-1.5-5a35.576 35.576 0 0 0 4.5-4c-1.12-3.418-2.787-6.418-5-9-1.773-1.932-3.94-3.266-6.5-4a14.692 14.692 0 0 1-3.5 3c.533-3.025 2.367-4.358 5.5-4 3.77.593 6.603 2.593 8.5 6Z"/><path style="opacity:1" fill="#cd8543" d="M171.5 38.5a71.194 71.194 0 0 1 9 3l14 8c-1.955 1.826-4.288 2.326-7 1.5-4.947-4.794-10.28-8.96-16-12.5Z"/><path style="opacity:1" fill="#c57e41" d="M228.5 45.5c6.62 5.85 8.786 13.184 6.5 22-.608 1.566-1.442 2.9-2.5 4 .091-2.198-.575-2.531-2-1-.172-.992.162-1.658 1-2 .951-1.419 1.284-3.085 1-5 1.632-4.352.799-8.352-2.5-12-2.492-1.997-5.325-2.997-8.5-3a24.637 24.637 0 0 1 7-3Z"/><path style="opacity:1" fill="#ebb657" d="M52.5 34.5c1.157 2.807 1.157 5.474 0 8-1.897-3.407-4.73-5.407-8.5-6-3.133-.358-4.967.975-5.5 4-3.877 6.878-3.877 13.878 0 21v1a5.728 5.728 0 0 1-3 1c-4.105-8.637-3.939-17.303.5-26 4.666-5.406 10.166-6.406 16.5-3Z"/><path style="opacity:1" fill="#c96e7c" d="M232.5 63.5c.284 1.915-.049 3.581-1 5 1.464-11.376-3.202-15.876-14-13.5-7.205 5.912-11.038 13.412-11.5 22.5 1.397 1.57 2.897 2.904 4.5 4-3.478.316-6.812-.184-10-1.5-2.626-1.372-3.292-3.205-2-5.5 1.898.985 3.398.318 4.5-2 .839-2.64.339-4.973-1.5-7a373.129 373.129 0 0 1 18-14.5c8.686-.482 13.02 3.684 13 12.5Z"/><path style="opacity:1" fill="#ca6d7c" d="M48.5 41.5c2.213 2.582 3.88 5.582 5 9a35.576 35.576 0 0 1-4.5 4c-.877 2.174-.377 3.84 1.5 5v1a68.528 68.528 0 0 1-6 9c-2.72-1.807-4.72-4.14-6-7v-1a23.407 23.407 0 0 0 6-2.5c.69-2.696 2.19-4.863 4.5-6.5a27.36 27.36 0 0 0-.5-11Z"/><path style="opacity:1" fill="#fdc6c7" d="M231.5 68.5c-.838.342-1.172 1.008-1 2-4.857 6.766-11.524 10.432-20 11-1.603-1.096-3.103-2.43-4.5-4 .462-9.088 4.295-16.588 11.5-22.5 10.798-2.376 15.464 2.124 14 13.5Z"/><path style="opacity:1" fill="#c77c42" d="M54.5 54.5c-.975 2.295-2.308 4.295-4 6v-1a9.106 9.106 0 0 1 1-5c1.114-1.276 2.114-1.276 3 0Z"/><path style="opacity:1" fill="#9f434d" d="M221.5 48.5c3.175.003 6.008 1.003 8.5 3 3.299 3.648 4.132 7.648 2.5 12 .02-8.816-4.314-12.982-13-12.5a373.129 373.129 0 0 0-18 14.5c1.839 2.027 2.339 4.36 1.5 7-1.102 2.318-2.602 2.985-4.5 2a10.526 10.526 0 0 1 2.5-3c.667-1 .667-2 0-3a95.447 95.447 0 0 1-7.5-5.5c3.07.992 6.07.66 9-1 5.689-5.502 12.022-10.002 19-13.5Z"/><path style="opacity:1" fill="#c2773d" d="m50.5 60.5-4 13c0 .667-.333 1-1 1a111.662 111.662 0 0 0-8.5-7 10.123 10.123 0 0 1-1.5-4 5.728 5.728 0 0 0 3-1c1.28 2.86 3.28 5.193 6 7a68.528 68.528 0 0 0 6-9Z"/><path style="opacity:1" fill="#fde0a9" d="M102.5 117.5c-.438-.065-.772.101-1 .5 4.283 4.636 8.283 4.469 12-.5.405-15.049 4.905-28.716 13.5-41 16.721-18.313 33.721-18.647 51-1 7.444 10.831 11.611 22.831 12.5 36 9.656 3.992 16.656 10.658 21 20v1a46.93 46.93 0 0 1 2 16c-.667 0-1 .333-1 1-9.988 6.33-20.654 10.996-32 14-35.431 6.454-71.098 7.621-107 3.5a90.891 90.891 0 0 1-20-4.5 46.213 46.213 0 0 0-13-9c-5.214-5.432-8.548-11.766-10-19 .741-8.723 3.575-16.723 8.5-24a175.303 175.303 0 0 1 6.5-36c.667 0 1-.333 1-1 17.838-15.709 34.338-14.376 49.5 4 6.492 12.61 8.659 25.943 6.5 40Z"/><path style="opacity:1" fill="#0a0806" d="M66.5 86.5c7.503-1.837 12.337.83 14.5 8 1.772 8.04-.728 14.207-7.5 18.5-6.825 1.186-10.992-1.647-12.5-8.5-1.472-7.08.361-13.08 5.5-18Z"/><path style="opacity:1" fill="#050403" d="M153.5 85.5c12.473.226 17.306 6.559 14.5 19-2.305 7.292-7.138 9.792-14.5 7.5a17.842 17.842 0 0 1-5.5-4.5c-3.418-8.868-1.584-16.201 5.5-22Z"/><path style="opacity:1" fill="#c98141" d="M212.5 86.5a44.093 44.093 0 0 1-3 2 57.96 57.96 0 0 0 5 9c-8.769-1.292-14.602-5.959-17.5-14 4.838 2.485 10.005 3.485 15.5 3Z"/><path style="opacity:1" fill="#e5e5e5" d="M68.5 89.5c2.852-.148 4.519 1.186 5 4-2.333 5.333-4.667 5.333-7 0 .252-1.573.918-2.906 2-4Z"/><path style="opacity:1" fill="#e1e1e1" d="M153.5 89.5c5.168.838 6.168 3.338 3 7.5-6.566-.195-7.566-2.695-3-7.5Z"/><path style="opacity:1" fill="#7c766f" d="M184.5 113.5a51.569 51.569 0 0 0-7 1c2.155-2.034 4.488-2.367 7-1Z"/><path style="opacity:1" fill="#1c1710" d="M102.5 117.5c1.167 1.315 2.667 1.981 4.5 2a29.291 29.291 0 0 1 6.5-2c-3.717 4.969-7.717 5.136-12 .5.228-.399.562-.565 1-.5Z"/><path style="opacity:1" fill="#ecebeb" d="M184.5 113.5a14.093 14.093 0 0 0 1 3.5 20.987 20.987 0 0 1-3 4.5 91.287 91.287 0 0 0-10 4c-4.032 1.266-8.032 1.266-12 0 .115-2.447 1.115-4.447 3-6 4.317-2.44 8.983-4.107 14-5a51.569 51.569 0 0 1 7-1Z"/><path style="opacity:1" fill="#5c5345" d="M184.5 113.5c1.941 1.511 2.441 3.511 1.5 6-.816 1.323-1.983 1.989-3.5 2a20.987 20.987 0 0 0 3-4.5 14.093 14.093 0 0 1-1-3.5Z"/><path style="opacity:1" fill="#676054" d="M163.5 119.5c-1.885 1.553-2.885 3.553-3 6-1.691-3.164-.691-5.164 3-6Z"/><path style="opacity:1" fill="#6b6252" d="M160.5 125.5c3.968 1.266 7.968 1.266 12 0-.111.617-.444 1.117-1 1.5-2.347.436-4.681.936-7 1.5-2.153-.061-3.486-1.061-4-3Z"/><path style="opacity:1" fill="#cf8644" d="M226.5 127.5a32.924 32.924 0 0 0-4 5.5c.571 1.599 1.571 2.766 3 3.5-5.415.896-10.082-.437-14-4v-1c4.982-1.326 9.982-2.66 15-4Z"/><path style="opacity:1" fill="#834f41" d="M99.5 131.5c8.156-1.157 16.49-1.323 25-.5 2.647 3.942 2.647 7.775 0 11.5 1.077-3.026 1.077-6.026 0-9a81.883 81.883 0 0 0-18-1c-2.107-.968-4.441-1.302-7-1Z"/><path style="opacity:1" fill="#4e1714" d="M99.5 131.5c2.559-.302 4.893.032 7 1-7.856 2.419-9.023 6.752-3.5 13a35.524 35.524 0 0 1 5.5 4c-6.335-2.096-10.002-6.596-11-13.5.025-1.876.691-3.376 2-4.5Z"/><path style="opacity:1" fill="#f8a79f" d="M106.5 132.5a81.883 81.883 0 0 1 18 1c1.077 2.974 1.077 5.974 0 9 .172.992-.162 1.658-1 2-4.095 4.207-9.095 5.873-15 5a35.524 35.524 0 0 0-5.5-4c-5.523-6.248-4.356-10.581 3.5-13Z"/><path style="opacity:1" fill="#51050d" d="M30.5 134.5c1.452 7.234 4.786 13.568 10 19a11.743 11.743 0 0 1 3 5c-3.403-.573-6.403-1.906-9-4-4.295-4.921-7.295-10.588-9-17-.825-.886-1.825-1.219-3-1 2.405-1.268 5.072-1.935 8-2Z"/><path style="opacity:1" fill="#fbc25c" d="M211.5 132.5c3.918 3.563 8.585 4.896 14 4 1.333 1 1.333 2 0 3-3.386 3.706-7.386 6.706-12 9a46.93 46.93 0 0 0-2-16Z"/><path style="opacity:1" fill="#b82d1f" d="M22.5 136.5c1.175-.219 2.175.114 3 1 1.705 6.412 4.705 12.079 9 17a85.795 85.795 0 0 1-14-8l-1 1c1.688 1.021 3.021 2.355 4 4-9.861-2.284-12.694 1.383-8.5 11l3 9c15.938 17.616 34.438 31.783 55.5 42.5-6.71-.506-13.044-2.506-19-6A192.636 192.636 0 0 1 27 186.5c-.363 6.205 1.303 11.871 5 17 6.494 7.671 13.994 14.005 22.5 19-18.204-5.68-32.704-16.347-43.5-32 .228-4.193 1.395-8.193 3.5-12a1100.86 1100.86 0 0 1-8.5-25c-1.652-5.346-.152-9.513 4.5-12.5 3.703-2.354 7.703-3.854 12-4.5Z"/><path style="opacity:1" fill="#51030b" d="M225.5 140.5c1.495.489 2.829 1.155 4 2a61.095 61.095 0 0 1-7 10.5c1.399.595 2.732.428 4-.5 1.273.757 1.273 1.423 0 2a364.488 364.488 0 0 0-6 3 5.727 5.727 0 0 0-3 1c-.787-1.604-2.12-2.271-4-2 2.551-3.058 5.385-6.058 8.5-9a17.341 17.341 0 0 0 3.5-7Z"/><path style="opacity:1" fill="#b82c1f" d="M229.5 142.5a58.47 58.47 0 0 1 16 7.5c3.537 2.408 5.204 5.741 5 10a146.172 146.172 0 0 1-5 20c5.528 7.294 5.195 14.294-1 21a123.166 123.166 0 0 1-12 8.5 361.857 361.857 0 0 0-3-20.5 85.81 85.81 0 0 1 1-7.5v-1c.617-.111 1.117-.444 1.5-1 .667-5 .667-10 0-15-.424-2.525-1.59-4.525-3.5-6 0-.667-.333-1-1-1a5.727 5.727 0 0 0-1-3c1.273-.577 1.273-1.243 0-2-1.268.928-2.601 1.095-4 .5a61.095 61.095 0 0 0 7-10.5Z"/><path style="opacity:1" fill="#ca8344" d="M225.5 139.5v1a17.341 17.341 0 0 1-3.5 7c-3.115 2.942-5.949 5.942-8.5 9h-2a21.435 21.435 0 0 0 1-7c0-.667.333-1 1-1 4.614-2.294 8.614-5.294 12-9Z"/><path style="opacity:.239" fill="#223c63" d="M-.5 145.5h1a41.743 41.743 0 0 0 1 9l-2-2v-7Z"/><path style="opacity:1" fill="#4d1915" d="M123.5 144.5c-.859 2.952-2.859 4.785-6 5.5-3.196.805-6.196.638-9-.5 5.905.873 10.905-.793 15-5Z"/><path style="opacity:1" fill="#cf9e7b" d="M212.5 149.5a21.435 21.435 0 0 1-1 7 208.791 208.791 0 0 1-31 7c11.346-3.004 22.012-7.67 32-14Z"/><path style="opacity:1" fill="#f5673f" d="M23.5 151.5c17.145 12.632 36.478 19.465 58 20.5 37.36 3.538 74.36 1.372 111-6.5a244.01 244.01 0 0 1 1 54c-.934 1.068-1.268 2.401-1 4a143.604 143.604 0 0 0-22 8c-34.602 6.259-68.935 5.092-103-3.5a99.746 99.746 0 0 1-13-5.5c-8.506-4.995-16.006-11.329-22.5-19-3.697-5.129-5.363-10.795-5-17A192.636 192.636 0 0 0 54.5 208c5.956 3.494 12.29 5.494 19 6-21.062-10.717-39.562-24.884-55.5-42.5l-3-9c-4.194-9.617-1.361-13.284 8.5-11Z"/><path style="opacity:1" fill="#710911" d="M34.5 154.5c2.597 2.094 5.597 3.427 9 4 2.907 2.305 6.24 3.638 10 4a90.891 90.891 0 0 0 20 4.5c35.902 4.121 71.569 2.954 107-3.5a208.791 208.791 0 0 0 31-7h2c1.88-.271 3.213.396 4 2-.992-.172-1.658.162-2 1a34.512 34.512 0 0 0-11 3c-4.1.692-8.1 1.692-12 3-36.64 7.872-73.64 10.038-111 6.5-21.522-1.035-40.855-7.868-58-20.5-.979-1.645-2.312-2.979-4-4l1-1a85.795 85.795 0 0 0 14 8Z"/><path style="opacity:1" fill="#c99776" d="M40.5 153.5a46.213 46.213 0 0 1 13 9c-3.76-.362-7.093-1.695-10-4a11.743 11.743 0 0 0-3-5Z"/><path style="opacity:1" fill="#cc999f" d="M226.5 154.5c.61.891.943 1.891 1 3h-7a364.488 364.488 0 0 1 6-3Z"/><path style="opacity:1" fill="#fefbfa" d="M220.5 157.5h7c.667 0 1 .333 1 1a80.028 80.028 0 0 1 2 22v1a46.081 46.081 0 0 0-6 5.5c-2.15 1.411-4.484 2.245-7 2.5a159.521 159.521 0 0 0-2-30c.342-.838 1.008-1.172 2-1a5.727 5.727 0 0 1 3-1Z"/><path style="opacity:1" fill="#f56942" d="M215.5 159.5a159.521 159.521 0 0 1 2 30v1a86.664 86.664 0 0 1-11 6c3.095-11.579 2.428-22.912-2-34a34.512 34.512 0 0 1 11-3Z"/><path style="opacity:1" fill="#fdf8f7" d="M204.5 162.5c4.428 11.088 5.095 22.421 2 34a200.512 200.512 0 0 0-10 4.5c3.277-.201 6.611-.368 10-.5h1v16a4941.292 4941.292 0 0 1-13 6c-.886-.825-1.219-1.825-1-3a244.01 244.01 0 0 0-1-54c3.9-1.308 7.9-2.308 12-3Z"/><path style="opacity:1" fill="#f16641" d="M228.5 158.5c1.91 1.475 3.076 3.475 3.5 6 .667 5 .667 10 0 15-.383.556-.883.889-1.5 1a80.028 80.028 0 0 0-2-22Z"/><path style="opacity:1" fill="#c26e7d" d="M230.5 181.5a85.81 85.81 0 0 0-1 7.5 361.857 361.857 0 0 1 3 20.5 74.265 74.265 0 0 1-13 7v-13c.79 1.109 1.29 2.442 1.5 4 3.397-3.788 5.397-8.121 6-13a38.026 38.026 0 0 1-6.5 2.5c-.752.671-1.086 1.504-1 2.5-.838-.342-1.172-1.008-1-2 .302-2.559-.032-4.893-1-7v-1c2.516-.255 4.85-1.089 7-2.5a46.081 46.081 0 0 1 6-5.5Z"/><path style="opacity:1" fill="#bc2e20" d="M46.5 183.5c.06-.543.393-.876 1-1 19.604 8.303 40.104 12.303 61.5 12a261.698 261.698 0 0 0 32-3c9.355.096 10.855 3.596 4.5 10.5-11.98 4.799-24.313 5.799-37 3-22.276-2.702-42.943-9.869-62-21.5Z"/><path style="opacity:1" fill="#bc3124" d="M217.5 190.5c.968 2.107 1.302 4.441 1 7a82.998 82.998 0 0 1-11 3h-1v-4a86.664 86.664 0 0 0 11-6Z"/><path style="opacity:1" fill="#fbf4f4" d="M219.5 203.5v-4c-.086-.996.248-1.829 1-2.5a38.026 38.026 0 0 0 6.5-2.5c-.603 4.879-2.603 9.212-6 13-.21-1.558-.71-2.891-1.5-4Z"/><path style="opacity:1" fill="#c57484" d="M206.5 196.5v4c-3.389.132-6.723.299-10 .5a200.512 200.512 0 0 1 10-4.5Z"/><path style="opacity:1" fill="#f56943" d="M218.5 197.5c-.172.992.162 1.658 1 2v10l-12 7v-16a82.998 82.998 0 0 0 11-3Z"/><path style="opacity:1" fill="#b72c1f" d="M219.5 209.5v7a47.386 47.386 0 0 1-12 5v-5l12-7Z"/><path style="opacity:1" fill="#bf6e7c" d="M207.5 216.5v5c-4.715 2.238-9.715 3.905-15 5v-3c-.268-1.599.066-2.932 1-4-.219 1.175.114 2.175 1 3 4.363-2.006 8.696-4.006 13-6Z"/><path style="opacity:1" fill="#b52d1f" d="M192.5 223.5v3a200.717 200.717 0 0 1-22 5 143.604 143.604 0 0 1 22-8Z"/></svg>