<svg version="1.1" id="Uploaded to svgrepo.com" xmlns="http://www.w3.org/2000/svg" x="0" y="0" width="32" height="32" style="enable-background:new 0 0 32 32" xml:space="preserve"><style>.st0{fill:#ead13f}.st1{fill:#cc4121}.st2{fill:#fffaee}.st3{fill:#e0a838}.st4{fill:#d1712a}.st5{fill:#a3aeb5}.st6{fill:#788287}.st7{fill:#c3cc6a}.st8{fill:#6f9b45}.st9{fill:#248ebc}.st10{fill:#8d3e93}.st11{fill:#3d3935}.st12{fill:#716558}.st13{fill:#af9480}.st14{fill:#dbd2c1}.st15{fill:#231f20}</style><path d="M16 27.437c1.777-.942 13.5-7.462 13.5-15.437 0-4.136-3.364-7.5-7.5-7.5-2.147 0-4.197.93-5.625 2.551L16 7.478l-.375-.426A7.501 7.501 0 0 0 10 4.5c-4.136 0-7.5 3.364-7.5 7.5 0 7.975 11.723 14.495 13.5 15.437z" style="fill:#d36781"/><path d="M22 4a7.972 7.972 0 0 0-6 2.721A7.972 7.972 0 0 0 10 4a8 8 0 0 0-8 8c0 9 14 16 14 16s14-7 14-16a8 8 0 0 0-8-8zm-6 22.869C13.664 25.601 3 19.406 3 12c0-3.86 3.14-7 7-7 2.003 0 3.917.868 5.25 2.382l.75.852.75-.852A7.002 7.002 0 0 1 22 5c3.86 0 7 3.14 7 7 0 7.406-10.664 13.601-13 14.869z" style="fill:#231f20"/><circle cx="8" cy="10" r="2" style="fill:#e598a3"/></svg>